# xmcd
#
# Track frame offsets: 
#        150
#        14708
#        28780
#        42276
#        53134
#        66034
#        79659
#        92828
#        106620
#        124055
#        135953
#        150257
#        164818
#        176677
#        189531
#        202453
#        213792
#        228288
#        240537
#        248873
#        261596
#        273218
#        284069
#        295644
#        309801
#        324083
#        335002
#        346371
#
# Disc length: 4792 seconds
#
# Revision: 2
# Processed by: cddbd v1.5.2PL0 Copyright (c) Steve Scherf et al.
# Submitted via: ExactAudioCopy v1.0b1
#
DISCID=9512b61c
DTITLE=Nat King Cole - The Very Best of
DYEAR=2006
DGENRE=Blues
TTITLE0=Stardust
TTITLE1=Sweet Lorraine
TTITLE2=(Get Your Kicks on) Route 66
TTITLE3=Straighten Up and Fly Right
TTITLE4=(I Love You) For Sentimental Reasons
TTITLE5=What'll I Do?
TTITLE6=Morning Star [Original Film Version from St. Louis Blues]
TTITLE7=Penthouse Serenade [Instrumental]
TTITLE8=Candy
TTITLE9=Walkin' My Baby Back Home
TTITLE10=Unforgettable
TTITLE11=Mona Lisa
TTITLE12=Nature Boy
TTITLE13=Somewhere along the Way
TTITLE14=Smile
TTITLE15=A Blossom Fell
TTITLE16=Can't I?
TTITLE17=Let There Be Love
TTITLE18=Almost Like Being in Love
TTITLE19=Ballerina
TTITLE20=I'm Gonna Sit Right Down (and Write Myself a Letter)
TTITLE21=Let's Face the Music and Dance
TTITLE22=Autumn Leaves [French Version]
TTITLE23=When I Fall in Love
TTITLE24=That Sunday, That Summer
TTITLE25=Looking Back
TTITLE26=L-O-V-E [Multi-Lingual Version]
TTITLE27=I Wish You Love [Live at the Sands Hotel, Las Vegas, 14.01.19
TTITLE27=60]
EXTD=
EXTT0=
EXTT1=
EXTT2=
EXTT3=
EXTT4=
EXTT5=
EXTT6=
EXTT7=
EXTT8=
EXTT9=
EXTT10=
EXTT11=
EXTT12=
EXTT13=
EXTT14=
EXTT15=
EXTT16=
EXTT17=
EXTT18=
EXTT19=
EXTT20=
EXTT21=
EXTT22=
EXTT23=
EXTT24=
EXTT25=
EXTT26=
EXTT27=
PLAYORDER=
